<svg width="157" height="157" viewBox="0 0 157 157" fill="none" xmlns="http://www.w3.org/2000/svg">
<g clip-path="url(#clip0_12_12)" filter="url(#filter0_d_12_12)">
<path d="M64.5312 149C63.0597 149.007 61.621 148.566 60.4072 147.734C59.1935 146.902 58.2626 145.719 57.7389 144.344L46.1449 114.195C45.9101 113.587 45.5508 113.035 45.0903 112.575C44.6297 112.114 44.078 111.755 43.4704 111.52L13.3125 99.9173C11.9387 99.39 10.7571 98.4586 9.92366 97.246C9.09018 96.0333 8.644 94.5964 8.644 93.125C8.644 91.6535 9.09018 90.2166 9.92366 89.004C10.7571 87.7913 11.9387 86.8599 13.3125 86.3327L43.4617 74.7386C44.0692 74.5038 44.621 74.1446 45.0815 73.684C45.5421 73.2234 45.9013 72.6717 46.1361 72.0642L57.7389 41.9062C58.2662 40.5325 59.1976 39.3509 60.4102 38.5174C61.6229 37.6839 63.0598 37.2377 64.5312 37.2377C66.0027 37.2377 67.4396 37.6839 68.6522 38.5174C69.8649 39.3509 70.7963 40.5325 71.3235 41.9062L82.9176 72.0554C83.1524 72.663 83.5116 73.2147 83.9722 73.6753C84.4328 74.1358 84.9845 74.4951 85.592 74.7299L115.567 86.2628C116.996 86.7928 118.228 87.7504 119.094 89.0053C119.96 90.2603 120.418 91.7516 120.406 93.2763C120.384 94.7221 119.928 96.1281 119.098 97.312C118.268 98.496 117.102 99.4036 115.75 99.9173L85.6008 111.511C84.9932 111.746 84.4415 112.105 83.9809 112.566C83.5204 113.027 83.1612 113.578 82.9263 114.186L71.3235 144.344C70.7999 145.719 69.869 146.902 68.6553 147.734C67.4415 148.566 66.0028 149.007 64.5312 149Z" fill="#257344"/>
<path d="M29.6095 51.219C28.7468 51.2189 27.9044 50.9575 27.1932 50.4692C26.482 49.9809 25.9354 49.2886 25.6255 48.4834L20.719 35.7253C20.6127 35.4463 20.4485 35.1929 20.2374 34.9817C20.0262 34.7706 19.7728 34.6065 19.4938 34.5001L6.7357 29.5936C5.93069 29.2836 5.23847 28.737 4.75025 28.0258C4.26203 27.3146 4.0007 26.4722 4.0007 25.6096C4.0007 24.747 4.26203 23.9046 4.75025 23.1934C5.23847 22.4822 5.93069 21.9356 6.7357 21.6256L19.4938 16.7191C19.7726 16.6123 20.0257 16.448 20.2368 16.2369C20.4479 16.0258 20.6122 15.7727 20.719 15.4939L25.5819 2.84928C25.8561 2.10486 26.328 1.44926 26.9469 0.952928C27.5658 0.456595 28.3082 0.138297 29.0944 0.0322445C30.0383 -0.0825024 30.9935 0.121146 31.8086 0.610898C32.6236 1.10065 33.2518 1.84847 33.5935 2.73578L38.5001 15.4939C38.6069 15.7727 38.7712 16.0258 38.9823 16.2369C39.1933 16.448 39.4465 16.6123 39.7252 16.7191L52.4834 21.6256C53.2884 21.9356 53.9806 22.4822 54.4688 23.1934C54.957 23.9046 55.2183 24.747 55.2183 25.6096C55.2183 26.4722 54.957 27.3146 54.4688 28.0258C53.9806 28.737 53.2884 29.2836 52.4834 29.5936L39.7252 34.5001C39.4462 34.6065 39.1928 34.7706 38.9817 34.9817C38.7705 35.1929 38.6064 35.4463 38.5001 35.7253L33.5935 48.4834C33.2836 49.2886 32.7371 49.9809 32.0259 50.4692C31.3147 50.9575 30.4722 51.2189 29.6095 51.219Z" fill="#257344"/>
<path d="M120.406 74.5C119.465 74.4997 118.546 74.2143 117.771 73.6813C116.995 73.1482 116.399 72.3927 116.061 71.5142L109.415 54.2366C109.298 53.9322 109.118 53.6557 108.887 53.4251C108.657 53.1945 108.38 53.0149 108.076 52.8979L90.7983 46.2511C89.9205 45.9129 89.1658 45.3168 88.6335 44.5412C88.1011 43.7656 87.8162 42.847 87.8162 41.9063C87.8162 40.9656 88.1011 40.047 88.6335 39.2714C89.1658 38.4958 89.9205 37.8996 90.7983 37.5614L108.076 30.9146C108.38 30.7977 108.657 30.6181 108.887 30.3875C109.118 30.1569 109.298 29.8804 109.415 29.5759L116.012 12.4206C116.313 11.6093 116.829 10.8949 117.503 10.3532C118.178 9.81157 118.987 9.46299 119.845 9.34454C120.875 9.21986 121.917 9.44277 122.806 9.9779C123.695 10.513 124.379 11.3297 124.751 12.2984L131.398 29.5759C131.515 29.8804 131.694 30.1569 131.925 30.3875C132.156 30.6181 132.432 30.7977 132.737 30.9146L150.014 37.5614C150.892 37.8996 151.647 38.4958 152.179 39.2714C152.711 40.047 152.996 40.9656 152.996 41.9063C152.996 42.847 152.711 43.7656 152.179 44.5412C151.647 45.3168 150.892 45.9129 150.014 46.2511L132.737 52.8979C132.432 53.0149 132.156 53.1945 131.925 53.4251C131.694 53.6557 131.515 53.9322 131.398 54.2366L124.751 71.5142C124.413 72.3927 123.818 73.1482 123.042 73.6813C122.266 74.2143 121.347 74.4997 120.406 74.5Z" fill="#257344"/>
</g>
<defs>
<filter id="filter0_d_12_12" x="0" y="0" width="157" height="157" filterUnits="userSpaceOnUse" color-interpolation-filters="sRGB">
<feFlood flood-opacity="0" result="BackgroundImageFix"/>
<feColorMatrix in="SourceAlpha" type="matrix" values="0 0 0 0 0 0 0 0 0 0 0 0 0 0 0 0 0 0 127 0" result="hardAlpha"/>
<feOffset dy="4"/>
<feGaussianBlur stdDeviation="2"/>
<feComposite in2="hardAlpha" operator="out"/>
<feColorMatrix type="matrix" values="0 0 0 0 0.496154 0 0 0 0 1 0 0 0 0 0.697692 0 0 0 1 0"/>
<feBlend mode="normal" in2="BackgroundImageFix" result="effect1_dropShadow_12_12"/>
<feBlend mode="normal" in="SourceGraphic" in2="effect1_dropShadow_12_12" result="shape"/>
</filter>
<clipPath id="clip0_12_12">
<rect width="149" height="149" fill="white" transform="translate(4)"/>
</clipPath>
</defs>
</svg>
